<?xml version="1.0" standalone="no"?><!DOCTYPE svg PUBLIC "-//W3C//DTD SVG 1.1//EN" "http://www.w3.org/Graphics/SVG/1.1/DTD/svg11.dtd"><svg class="icon" width="48px" height="48.00px" viewBox="0 0 1024 1024" version="1.1" xmlns="http://www.w3.org/2000/svg"><path d="M312.841958 257.676716l53.60372 0 0 618.772261-53.60372 0 0-618.772261Z" fill="#515151" /><path d="M488.295585 257.676716l53.60372 0 0 618.772261-53.60372 0 0-618.772261Z" fill="#515151" /><path d="M663.749213 257.676716l53.60372 0 0 618.772261-53.60372 0 0-618.772261Z" fill="#515151" /><path d="M214.696465 1023.948803c-35.326234 0-64.099195-27.902605-64.099195-62.256087L150.59727 165.367732 72.213989 165.367732 72.213989 111.764012l206.479276 0L278.693265 54.474076C278.693265 23.909205 306.851857 0 342.79246 0l344.661167 0c35.940603 0 64.047998 23.909205 64.047998 54.474076l0 57.289936 200.284386 0L951.786011 165.367732l-72.239588 0 0 796.376181c0 34.353482-28.721764 62.256087-64.047998 62.256087L214.696465 1024zM204.252187 972.188191l615.137243-1.843108 3.635018-2.662267 3.686216-3.174241L826.045098 165.367732 204.252187 165.367732 204.252187 972.188191zM332.296985 111.764012l365.60092 0L697.897905 53.552522 332.296985 53.552522 332.296985 111.764012z" fill="#515151" /><path d="M663.749213 522.418679l53.60372 0 0 34.19989-53.60372 0 0-34.19989Z" fill="#515151" /></svg>