<?xml version="1.0" encoding="UTF-8" standalone="no"?>
<!DOCTYPE svg PUBLIC "-//W3C//DTD SVG 1.1//EN" "http://www.w3.org/Graphics/SVG/1.1/DTD/svg11.dtd">
<svg width="100%" height="100%" viewBox="0 0 122 18" version="1.1" xmlns="http://www.w3.org/2000/svg" xmlns:xlink="http://www.w3.org/1999/xlink" xml:space="preserve" style="fill-rule:evenodd;clip-rule:evenodd;stroke-linejoin:round;stroke-miterlimit:1.41421;">
    <g transform="matrix(1,0,0,1,-1,14)">
        <g id="_-------">
            <path d="M16.56,1.368C16.584,1.488 16.551,1.575 16.461,1.629C16.371,1.683 16.284,1.644 16.2,1.512C15.996,1.284 15.789,1.071 15.579,0.873C15.369,0.675 15.12,0.48 14.832,0.288C13.956,-0.3 13.065,-0.846 12.159,-1.35C11.253,-1.854 10.392,-2.316 9.576,-2.736C9.396,-2.376 9.192,-2.052 8.964,-1.764C8.736,-1.476 8.484,-1.224 8.208,-1.008C7.812,-0.708 7.377,-0.474 6.903,-0.306C6.429,-0.138 5.931,-0.048 5.409,-0.036C4.887,-0.024 4.344,-0.099 3.78,-0.261C3.216,-0.423 2.634,-0.678 2.034,-1.026C1.698,-1.242 1.566,-1.38 1.638,-1.44C1.71,-1.5 1.908,-1.452 2.232,-1.296C3.312,-0.744 4.347,-0.507 5.337,-0.585C6.327,-0.663 7.188,-0.996 7.92,-1.584C8.364,-1.92 8.736,-2.394 9.036,-3.006C8.388,-3.33 7.737,-3.636 7.083,-3.924C6.429,-4.212 5.7,-4.488 4.896,-4.752C4.56,-4.872 4.167,-4.881 3.717,-4.779C3.267,-4.677 2.868,-4.488 2.52,-4.212C2.352,-4.068 2.232,-4.017 2.16,-4.059C2.088,-4.101 2.142,-4.23 2.322,-4.446C2.682,-4.866 3.096,-5.124 3.564,-5.22C4.032,-5.316 4.53,-5.304 5.058,-5.184C5.61,-5.052 6.213,-4.863 6.867,-4.617C7.521,-4.371 8.334,-4.014 9.306,-3.546C9.534,-4.098 9.702,-4.692 9.81,-5.328C9.918,-5.964 9.948,-6.612 9.9,-7.272C9.876,-7.488 9.864,-7.674 9.864,-7.83C9.864,-7.986 9.87,-8.118 9.882,-8.226L9.72,-8.172C9.396,-8.076 9.06,-7.962 8.712,-7.83C8.364,-7.698 8.028,-7.563 7.704,-7.425C7.38,-7.287 7.08,-7.152 6.804,-7.02C6.528,-6.888 6.3,-6.768 6.12,-6.66C5.94,-6.564 5.778,-6.495 5.634,-6.453C5.49,-6.411 5.355,-6.393 5.229,-6.399C5.103,-6.405 4.971,-6.432 4.833,-6.48C4.695,-6.528 4.548,-6.6 4.392,-6.696C4.32,-6.732 4.284,-6.78 4.284,-6.84C4.284,-6.9 4.338,-6.918 4.446,-6.894C4.674,-6.87 4.878,-6.864 5.058,-6.876C5.238,-6.888 5.412,-6.936 5.58,-7.02C6.468,-7.5 7.416,-7.941 8.424,-8.343C9.432,-8.745 10.41,-9.102 11.358,-9.414C11.634,-9.51 11.88,-9.555 12.096,-9.549C12.312,-9.543 12.57,-9.444 12.87,-9.252C13.086,-9.12 13.182,-9.015 13.158,-8.937C13.134,-8.859 12.918,-8.832 12.51,-8.856C12.174,-8.856 11.817,-8.802 11.439,-8.694C11.061,-8.586 10.644,-8.466 10.188,-8.334C10.212,-8.286 10.239,-8.232 10.269,-8.172C10.299,-8.112 10.32,-8.052 10.332,-7.992C10.428,-7.728 10.488,-7.464 10.512,-7.2C10.536,-6.936 10.536,-6.636 10.512,-6.3C10.488,-5.772 10.422,-5.253 10.314,-4.743C10.206,-4.233 10.05,-3.744 9.846,-3.276C10.062,-3.156 10.287,-3.036 10.521,-2.916C10.755,-2.796 10.992,-2.67 11.232,-2.538C11.94,-2.166 12.561,-1.827 13.095,-1.521C13.629,-1.215 14.094,-0.942 14.49,-0.702C14.886,-0.462 15.216,-0.243 15.48,-0.045C15.744,0.153 15.966,0.342 16.146,0.522C16.29,0.69 16.389,0.834 16.443,0.954C16.497,1.074 16.536,1.212 16.56,1.368ZM5.958,-8.55C5.754,-8.43 5.649,-8.409 5.643,-8.487C5.637,-8.565 5.736,-8.664 5.94,-8.784C6.132,-8.892 6.321,-9 6.507,-9.108C6.693,-9.216 6.882,-9.33 7.074,-9.45C7.266,-9.57 7.47,-9.699 7.686,-9.837C7.902,-9.975 8.148,-10.14 8.424,-10.332C8.556,-10.416 8.619,-10.524 8.613,-10.656C8.607,-10.788 8.544,-10.914 8.424,-11.034C8.244,-11.214 7.962,-11.412 7.578,-11.628C7.194,-11.844 6.792,-12.054 6.372,-12.258C6.216,-12.318 6.141,-12.381 6.147,-12.447C6.153,-12.513 6.222,-12.534 6.354,-12.51C6.738,-12.45 7.164,-12.333 7.632,-12.159C8.1,-11.985 8.52,-11.754 8.892,-11.466C9.024,-11.37 9.165,-11.223 9.315,-11.025C9.465,-10.827 9.57,-10.602 9.63,-10.35C9.654,-10.23 9.636,-10.122 9.576,-10.026C9.516,-9.93 9.354,-9.876 9.09,-9.864C8.946,-9.864 8.79,-9.843 8.622,-9.801C8.454,-9.759 8.25,-9.684 8.01,-9.576C7.77,-9.468 7.485,-9.33 7.155,-9.162C6.825,-8.994 6.426,-8.79 5.958,-8.55Z" style="fill:black;fill-rule:nonzero;"/>
            <path d="M33.03,-4.86C33.546,-4.5 33.39,-4.374 32.562,-4.482C32.142,-4.542 31.665,-4.563 31.131,-4.545C30.597,-4.527 29.988,-4.452 29.304,-4.32C29.304,-3.708 29.301,-3.162 29.295,-2.682C29.289,-2.202 29.292,-1.794 29.304,-1.458C29.304,-0.834 29.295,-0.171 29.277,0.531C29.259,1.233 29.22,1.908 29.16,2.556C29.1,3.108 29.031,3.348 28.953,3.276C28.875,3.204 28.824,2.88 28.8,2.304C28.776,1.752 28.758,1.074 28.746,0.27C28.734,-0.534 28.716,-1.482 28.692,-2.574C28.692,-2.742 28.692,-2.964 28.692,-3.24C28.692,-3.516 28.698,-3.834 28.71,-4.194C27.882,-4.014 27.162,-3.831 26.55,-3.645C25.938,-3.459 25.494,-3.3 25.218,-3.168C24.906,-3 24.654,-2.931 24.462,-2.961C24.27,-2.991 24.138,-3.084 24.066,-3.24C24.006,-3.384 24.03,-3.492 24.138,-3.564C24.246,-3.636 24.516,-3.72 24.948,-3.816C25.068,-3.84 25.197,-3.888 25.335,-3.96C25.473,-4.032 25.635,-4.134 25.821,-4.266C26.007,-4.398 26.223,-4.56 26.469,-4.752C26.715,-4.944 27.012,-5.172 27.36,-5.436C27.636,-5.652 27.885,-5.847 28.107,-6.021C28.329,-6.195 28.536,-6.354 28.728,-6.498C28.728,-6.618 28.728,-6.732 28.728,-6.84C28.728,-6.948 28.734,-7.062 28.746,-7.182C28.302,-7.038 27.849,-6.876 27.387,-6.696C26.925,-6.516 26.538,-6.348 26.226,-6.192C25.806,-5.988 25.524,-6.006 25.38,-6.246C25.272,-6.378 25.236,-6.486 25.272,-6.57C25.308,-6.654 25.38,-6.744 25.488,-6.84C25.704,-7.008 25.869,-7.245 25.983,-7.551C26.097,-7.857 26.112,-8.178 26.028,-8.514C26.016,-8.586 25.974,-8.646 25.902,-8.694C25.83,-8.742 25.743,-8.772 25.641,-8.784C25.539,-8.796 25.428,-8.781 25.308,-8.739C25.188,-8.697 25.074,-8.616 24.966,-8.496C24.342,-7.86 23.85,-7.08 23.49,-6.156C23.298,-5.652 23.142,-5.175 23.022,-4.725C22.902,-4.275 22.794,-3.858 22.698,-3.474C22.602,-3.138 22.521,-2.799 22.455,-2.457C22.389,-2.115 22.362,-1.824 22.374,-1.584C22.386,-1.044 22.395,-0.609 22.401,-0.279C22.407,0.051 22.404,0.318 22.392,0.522C22.38,0.75 22.353,0.879 22.311,0.909C22.269,0.939 22.182,0.882 22.05,0.738C21.906,0.534 21.804,0.234 21.744,-0.162C21.732,-0.234 21.723,-0.342 21.717,-0.486C21.711,-0.63 21.708,-0.783 21.708,-0.945C21.708,-1.107 21.714,-1.266 21.726,-1.422C21.738,-1.578 21.756,-1.704 21.78,-1.8C21.84,-2.076 21.864,-2.37 21.852,-2.682C21.84,-2.994 21.822,-3.414 21.798,-3.942C21.786,-4.05 21.759,-4.176 21.717,-4.32C21.675,-4.464 21.621,-4.602 21.555,-4.734C21.489,-4.866 21.42,-4.989 21.348,-5.103C21.276,-5.217 21.204,-5.298 21.132,-5.346C21.108,-5.37 21.084,-5.391 21.06,-5.409C21.036,-5.427 21.012,-5.448 20.988,-5.472C20.856,-5.268 20.718,-5.073 20.574,-4.887C20.43,-4.701 20.292,-4.524 20.16,-4.356C19.992,-4.152 19.869,-4.074 19.791,-4.122C19.713,-4.17 19.662,-4.302 19.638,-4.518C19.614,-4.65 19.623,-4.755 19.665,-4.833C19.707,-4.911 19.758,-4.98 19.818,-5.04C19.866,-5.076 19.95,-5.154 20.07,-5.274C20.19,-5.394 20.352,-5.58 20.556,-5.832C20.94,-6.312 21.324,-6.849 21.708,-7.443C22.092,-8.037 22.476,-8.676 22.86,-9.36C22.968,-9.54 23.022,-9.738 23.022,-9.954C23.022,-10.17 22.908,-10.41 22.68,-10.674C22.548,-10.818 22.512,-10.911 22.572,-10.953C22.632,-10.995 22.782,-10.932 23.022,-10.764C23.442,-10.488 23.688,-10.242 23.76,-10.026C23.832,-9.81 23.784,-9.6 23.616,-9.396C23.484,-9.24 23.355,-9.072 23.229,-8.892C23.103,-8.712 22.932,-8.448 22.716,-8.1C22.5,-7.752 22.257,-7.368 21.987,-6.948C21.717,-6.528 21.438,-6.108 21.15,-5.688C21.234,-5.664 21.312,-5.628 21.384,-5.58C21.732,-5.376 21.981,-5.193 22.131,-5.031C22.281,-4.869 22.35,-4.704 22.338,-4.536C22.326,-4.404 22.32,-4.269 22.32,-4.131C22.32,-3.993 22.32,-3.834 22.32,-3.654C22.308,-3.438 22.317,-3.312 22.347,-3.276C22.377,-3.24 22.422,-3.324 22.482,-3.528C22.674,-4.368 22.881,-5.094 23.103,-5.706C23.325,-6.318 23.55,-6.834 23.778,-7.254C24.006,-7.674 24.231,-8.016 24.453,-8.28C24.675,-8.544 24.876,-8.748 25.056,-8.892C25.164,-8.976 25.287,-9.036 25.425,-9.072C25.563,-9.108 25.698,-9.12 25.83,-9.108C25.962,-9.096 26.082,-9.063 26.19,-9.009C26.298,-8.955 26.388,-8.886 26.46,-8.802C26.532,-8.718 26.589,-8.625 26.631,-8.523C26.673,-8.421 26.685,-8.295 26.667,-8.145C26.649,-7.995 26.601,-7.809 26.523,-7.587C26.445,-7.365 26.322,-7.092 26.154,-6.768C26.226,-6.78 26.355,-6.816 26.541,-6.876C26.727,-6.936 26.943,-7.008 27.189,-7.092C27.435,-7.176 27.693,-7.266 27.963,-7.362C28.233,-7.458 28.494,-7.548 28.746,-7.632C28.758,-8.136 28.767,-8.622 28.773,-9.09C28.779,-9.558 28.794,-9.99 28.818,-10.386C28.83,-10.83 28.836,-11.196 28.836,-11.484C28.836,-11.772 28.83,-12.015 28.818,-12.213C28.806,-12.411 28.785,-12.57 28.755,-12.69C28.725,-12.81 28.686,-12.918 28.638,-13.014C28.566,-13.134 28.449,-13.188 28.287,-13.176C28.125,-13.164 27.99,-13.08 27.882,-12.924C27.786,-12.792 27.732,-12.747 27.72,-12.789C27.708,-12.831 27.714,-12.894 27.738,-12.978C27.858,-13.254 28.029,-13.419 28.251,-13.473C28.473,-13.527 28.698,-13.494 28.926,-13.374C29.142,-13.254 29.283,-13.05 29.349,-12.762C29.415,-12.474 29.436,-12.174 29.412,-11.862C29.388,-11.646 29.367,-11.376 29.349,-11.052C29.331,-10.728 29.319,-10.38 29.313,-10.008C29.307,-9.636 29.301,-9.258 29.295,-8.874C29.289,-8.49 29.286,-8.136 29.286,-7.812C29.754,-7.968 30.132,-8.07 30.42,-8.118C30.708,-8.166 30.906,-8.124 31.014,-7.992C31.05,-7.956 31.077,-7.908 31.095,-7.848C31.113,-7.788 31.107,-7.722 31.077,-7.65C31.047,-7.578 30.987,-7.5 30.897,-7.416C30.807,-7.332 30.666,-7.248 30.474,-7.164C30.354,-7.104 30.189,-7.008 29.979,-6.876C29.769,-6.744 29.544,-6.594 29.304,-6.426L29.304,-4.77C29.712,-4.854 30.099,-4.926 30.465,-4.986C30.831,-5.046 31.152,-5.088 31.428,-5.112C31.704,-5.136 31.989,-5.136 32.283,-5.112C32.577,-5.088 32.826,-5.004 33.03,-4.86ZM29.304,-6.948C29.436,-7.056 29.571,-7.164 29.709,-7.272C29.847,-7.38 29.988,-7.488 30.132,-7.596C30.024,-7.572 29.901,-7.542 29.763,-7.506C29.625,-7.47 29.472,-7.428 29.304,-7.38L29.304,-6.948ZM25.956,-3.888C26.244,-4.008 26.637,-4.131 27.135,-4.257C27.633,-4.383 28.158,-4.512 28.71,-4.644C28.71,-4.86 28.71,-5.082 28.71,-5.31C28.71,-5.538 28.716,-5.772 28.728,-6.012C28.704,-5.988 28.683,-5.973 28.665,-5.967C28.647,-5.961 28.626,-5.946 28.602,-5.922C28.182,-5.622 27.762,-5.313 27.342,-4.995C26.922,-4.677 26.46,-4.308 25.956,-3.888Z" style="fill:black;fill-rule:nonzero;"/>
            <path d="M46.962,-4.014C46.95,-3.954 46.944,-3.894 46.944,-3.834C46.944,-3.774 46.938,-3.726 46.926,-3.69C46.878,-3.138 46.956,-2.76 47.16,-2.556C47.364,-2.352 47.718,-2.262 48.222,-2.286C48.738,-2.31 49.173,-2.283 49.527,-2.205C49.881,-2.127 50.172,-1.992 50.4,-1.8C50.604,-1.632 50.751,-1.392 50.841,-1.08C50.931,-0.768 50.91,-0.432 50.778,-0.072C50.658,0.252 50.502,0.51 50.31,0.702C50.118,0.894 49.824,1.074 49.428,1.242C49.188,1.35 48.933,1.434 48.663,1.494C48.393,1.554 48.12,1.578 47.844,1.566C47.988,1.818 48.042,2.034 48.006,2.214C47.97,2.406 47.877,2.514 47.727,2.538C47.577,2.562 47.46,2.442 47.376,2.178C47.316,2.022 47.202,1.845 47.034,1.647C46.866,1.449 46.671,1.26 46.449,1.08C46.227,0.9 46.002,0.732 45.774,0.576C45.546,0.42 45.342,0.306 45.162,0.234C44.994,0.162 44.952,0.102 45.036,0.054C45.12,0.006 45.282,-0.006 45.522,0.018C45.726,0.042 45.993,0.126 46.323,0.27C46.653,0.414 46.932,0.582 47.16,0.774C47.208,0.822 47.253,0.861 47.295,0.891C47.337,0.921 47.376,0.96 47.412,1.008C47.676,1.08 47.946,1.098 48.222,1.062C48.498,1.026 48.753,0.957 48.987,0.855C49.221,0.753 49.428,0.627 49.608,0.477C49.788,0.327 49.92,0.168 50.004,0C50.196,-0.408 50.244,-0.732 50.148,-0.972C50.052,-1.212 49.902,-1.386 49.698,-1.494C49.542,-1.59 49.308,-1.653 48.996,-1.683C48.684,-1.713 48.384,-1.722 48.096,-1.71C47.748,-1.686 47.454,-1.716 47.214,-1.8C46.974,-1.884 46.785,-2.007 46.647,-2.169C46.509,-2.331 46.41,-2.52 46.35,-2.736C46.29,-2.952 46.278,-3.186 46.314,-3.438C46.326,-3.486 46.335,-3.537 46.341,-3.591C46.347,-3.645 46.35,-3.702 46.35,-3.762C45.978,-3.582 45.612,-3.402 45.252,-3.222C44.748,-2.958 44.385,-2.808 44.163,-2.772C43.941,-2.736 43.824,-2.808 43.812,-2.988C43.812,-3.108 43.839,-3.21 43.893,-3.294C43.947,-3.378 44.076,-3.468 44.28,-3.564C44.412,-3.624 44.529,-3.675 44.631,-3.717C44.733,-3.759 44.832,-3.816 44.928,-3.888C45.024,-3.96 45.12,-4.047 45.216,-4.149C45.312,-4.251 45.426,-4.38 45.558,-4.536C45.69,-4.728 45.843,-4.932 46.017,-5.148C46.191,-5.364 46.38,-5.598 46.584,-5.85C46.608,-6.102 46.635,-6.363 46.665,-6.633C46.695,-6.903 46.722,-7.176 46.746,-7.452C46.686,-7.404 46.623,-7.359 46.557,-7.317C46.491,-7.275 46.422,-7.224 46.35,-7.164C46.146,-7.02 45.966,-6.897 45.81,-6.795C45.654,-6.693 45.51,-6.603 45.378,-6.525C45.246,-6.447 45.12,-6.384 45,-6.336C44.88,-6.288 44.748,-6.24 44.604,-6.192C44.46,-6.144 44.352,-6.126 44.28,-6.138C44.208,-6.15 44.172,-6.183 44.172,-6.237C44.172,-6.291 44.199,-6.351 44.253,-6.417C44.307,-6.483 44.4,-6.558 44.532,-6.642C44.856,-6.858 45.216,-7.092 45.612,-7.344C46.008,-7.596 46.404,-7.848 46.8,-8.1C46.836,-8.532 46.872,-8.952 46.908,-9.36C46.944,-9.768 46.974,-10.152 46.998,-10.512C47.034,-11.04 46.965,-11.424 46.791,-11.664C46.617,-11.904 46.404,-12.06 46.152,-12.132C45.996,-12.192 45.861,-12.171 45.747,-12.069C45.633,-11.967 45.594,-11.802 45.63,-11.574C45.654,-11.382 45.639,-11.286 45.585,-11.286C45.531,-11.286 45.456,-11.394 45.36,-11.61C45.252,-11.838 45.222,-12.03 45.27,-12.186C45.318,-12.342 45.411,-12.453 45.549,-12.519C45.687,-12.585 45.855,-12.612 46.053,-12.6C46.251,-12.588 46.458,-12.534 46.674,-12.438C46.878,-12.342 47.049,-12.234 47.187,-12.114C47.325,-11.994 47.43,-11.841 47.502,-11.655C47.574,-11.469 47.613,-11.238 47.619,-10.962C47.625,-10.686 47.604,-10.356 47.556,-9.972C47.532,-9.78 47.508,-9.558 47.484,-9.306C47.46,-9.054 47.43,-8.778 47.394,-8.478C47.526,-8.574 47.658,-8.661 47.79,-8.739C47.922,-8.817 48.048,-8.898 48.168,-8.982C48.492,-9.174 48.777,-9.264 49.023,-9.252C49.269,-9.24 49.482,-9.192 49.662,-9.108C49.83,-9.048 49.911,-8.967 49.905,-8.865C49.899,-8.763 49.812,-8.67 49.644,-8.586C49.584,-8.562 49.53,-8.538 49.482,-8.514C49.434,-8.49 49.374,-8.445 49.302,-8.379C49.23,-8.313 49.149,-8.229 49.059,-8.127C48.969,-8.025 48.858,-7.89 48.726,-7.722C48.558,-7.506 48.336,-7.224 48.06,-6.876C47.784,-6.528 47.472,-6.138 47.124,-5.706C47.1,-5.514 47.082,-5.322 47.07,-5.13C47.058,-4.938 47.04,-4.764 47.016,-4.608C47.472,-4.788 47.886,-4.938 48.258,-5.058C48.63,-5.178 48.942,-5.28 49.194,-5.364C49.506,-5.46 49.662,-5.628 49.662,-5.868C49.662,-6.108 49.506,-6.396 49.194,-6.732C49.002,-6.936 48.915,-7.071 48.933,-7.137C48.951,-7.203 49.098,-7.104 49.374,-6.84C49.662,-6.564 49.911,-6.348 50.121,-6.192C50.331,-6.036 50.526,-5.934 50.706,-5.886C50.838,-5.862 50.955,-5.823 51.057,-5.769C51.159,-5.715 51.252,-5.646 51.336,-5.562C51.432,-5.454 51.438,-5.361 51.354,-5.283C51.27,-5.205 51.018,-5.136 50.598,-5.076C50.238,-5.016 49.836,-4.932 49.392,-4.824C48.948,-4.716 48.366,-4.536 47.646,-4.284C47.538,-4.236 47.427,-4.191 47.313,-4.149C47.199,-4.107 47.082,-4.062 46.962,-4.014ZM47.34,-7.848C47.316,-7.644 47.295,-7.443 47.277,-7.245C47.259,-7.047 47.238,-6.852 47.214,-6.66C47.49,-7.008 47.757,-7.347 48.015,-7.677C48.273,-8.007 48.51,-8.304 48.726,-8.568C48.45,-8.436 48.201,-8.313 47.979,-8.199C47.757,-8.085 47.544,-7.968 47.34,-7.848ZM45.792,-4.086L46.44,-4.374C46.452,-4.542 46.47,-4.728 46.494,-4.932C46.374,-4.8 46.257,-4.662 46.143,-4.518C46.029,-4.374 45.912,-4.23 45.792,-4.086ZM42.786,-3.816C43.038,-4.044 43.209,-4.161 43.299,-4.167C43.389,-4.173 43.32,-4.056 43.092,-3.816C42.888,-3.588 42.678,-3.369 42.462,-3.159C42.246,-2.949 42.036,-2.748 41.832,-2.556C41.82,-2.28 41.811,-1.953 41.805,-1.575C41.799,-1.197 41.796,-0.816 41.796,-0.432C41.796,-0.048 41.796,0.312 41.796,0.648C41.796,0.984 41.808,1.236 41.832,1.404C41.88,1.872 41.823,2.139 41.661,2.205C41.499,2.271 41.268,2.112 40.968,1.728C40.872,1.62 40.692,1.446 40.428,1.206C40.164,0.966 39.834,0.678 39.438,0.342C39.198,0.138 38.997,0.027 38.835,0.009C38.673,-0.009 38.484,0.018 38.268,0.09C38.16,0.114 38.058,0.108 37.962,0.072C37.866,0.036 37.794,-0.018 37.746,-0.09C37.698,-0.174 37.689,-0.246 37.719,-0.306C37.749,-0.366 37.842,-0.414 37.998,-0.45C38.13,-0.474 38.289,-0.525 38.475,-0.603C38.661,-0.681 38.868,-0.804 39.096,-0.972C39.48,-1.212 39.852,-1.464 40.212,-1.728C40.572,-1.992 40.926,-2.268 41.274,-2.556C41.298,-2.904 41.316,-3.246 41.328,-3.582C41.34,-3.918 41.358,-4.236 41.382,-4.536C40.626,-4.212 40.05,-3.945 39.654,-3.735C39.258,-3.525 39,-3.36 38.88,-3.24C38.664,-2.988 38.511,-2.841 38.421,-2.799C38.331,-2.757 38.238,-2.784 38.142,-2.88C38.034,-2.988 37.983,-3.093 37.989,-3.195C37.995,-3.297 38.082,-3.468 38.25,-3.708C38.55,-4.116 38.814,-4.602 39.042,-5.166C39.27,-5.73 39.528,-6.396 39.816,-7.164C39.792,-7.14 39.765,-7.128 39.735,-7.128C39.705,-7.128 39.678,-7.116 39.654,-7.092C39.342,-6.924 39,-6.876 38.628,-6.948C38.256,-7.02 37.896,-7.164 37.548,-7.38C37.38,-7.464 37.308,-7.533 37.332,-7.587C37.356,-7.641 37.458,-7.632 37.638,-7.56C37.842,-7.5 38.079,-7.47 38.349,-7.47C38.619,-7.47 38.922,-7.518 39.258,-7.614C39.354,-7.638 39.477,-7.677 39.627,-7.731C39.777,-7.785 39.936,-7.848 40.104,-7.92C40.212,-8.208 40.332,-8.508 40.464,-8.82C40.596,-9.132 40.74,-9.456 40.896,-9.792C41.1,-10.272 41.274,-10.896 41.418,-11.664C41.478,-11.952 41.556,-12.114 41.652,-12.15C41.748,-12.186 41.916,-12.096 42.156,-11.88C42.408,-11.688 42.627,-11.508 42.813,-11.34C42.999,-11.172 43.158,-11.034 43.29,-10.926C43.458,-10.77 43.653,-10.605 43.875,-10.431C44.097,-10.257 44.298,-10.122 44.478,-10.026C44.622,-9.93 44.691,-9.813 44.685,-9.675C44.679,-9.537 44.538,-9.408 44.262,-9.288C44.058,-9.192 43.803,-9.075 43.497,-8.937C43.191,-8.799 42.867,-8.652 42.525,-8.496C42.183,-8.34 41.844,-8.178 41.508,-8.01C41.172,-7.842 40.86,-7.686 40.572,-7.542C40.5,-7.362 40.416,-7.143 40.32,-6.885C40.224,-6.627 40.119,-6.348 40.005,-6.048C39.891,-5.748 39.768,-5.433 39.636,-5.103C39.504,-4.773 39.354,-4.44 39.186,-4.104C39.606,-4.308 39.999,-4.491 40.365,-4.653C40.731,-4.815 41.076,-4.98 41.4,-5.148C41.424,-5.412 41.442,-5.631 41.454,-5.805C41.466,-5.979 41.478,-6.096 41.49,-6.156C41.514,-6.288 41.574,-6.408 41.67,-6.516C41.766,-6.624 41.883,-6.699 42.021,-6.741C42.159,-6.783 42.309,-6.792 42.471,-6.768C42.633,-6.744 42.786,-6.672 42.93,-6.552C43.074,-6.432 43.17,-6.303 43.218,-6.165C43.266,-6.027 43.266,-5.886 43.218,-5.742C43.17,-5.598 43.083,-5.46 42.957,-5.328C42.831,-5.196 42.66,-5.082 42.444,-4.986C42.336,-4.938 42.24,-4.899 42.156,-4.869C42.072,-4.839 41.982,-4.806 41.886,-4.77C41.874,-4.47 41.865,-4.167 41.859,-3.861C41.853,-3.555 41.85,-3.276 41.85,-3.024C42.006,-3.156 42.159,-3.288 42.309,-3.42C42.459,-3.552 42.618,-3.684 42.786,-3.816ZM41.76,-11.304C41.712,-11.04 41.667,-10.788 41.625,-10.548C41.583,-10.308 41.532,-10.071 41.472,-9.837C41.412,-9.603 41.337,-9.36 41.247,-9.108C41.157,-8.856 41.046,-8.574 40.914,-8.262C41.37,-8.478 41.829,-8.703 42.291,-8.937C42.753,-9.171 43.122,-9.372 43.398,-9.54C43.602,-9.672 43.695,-9.819 43.677,-9.981C43.659,-10.143 43.488,-10.41 43.164,-10.782C43.08,-10.878 42.948,-11.001 42.768,-11.151C42.588,-11.301 42.426,-11.436 42.282,-11.556C42.162,-11.64 42.051,-11.676 41.949,-11.664C41.847,-11.652 41.784,-11.532 41.76,-11.304ZM41.976,-6.03C41.952,-5.982 41.937,-5.898 41.931,-5.778C41.925,-5.658 41.916,-5.52 41.904,-5.364C42,-5.412 42.093,-5.46 42.183,-5.508C42.273,-5.556 42.372,-5.598 42.48,-5.634C42.684,-5.73 42.813,-5.862 42.867,-6.03C42.921,-6.198 42.87,-6.324 42.714,-6.408C42.558,-6.516 42.408,-6.534 42.264,-6.462C42.12,-6.39 42.024,-6.246 41.976,-6.03ZM41.202,0.81L41.202,-0.198C41.202,-0.45 41.208,-0.732 41.22,-1.044C41.232,-1.356 41.244,-1.68 41.256,-2.016C41.016,-1.788 40.761,-1.566 40.491,-1.35C40.221,-1.134 39.936,-0.906 39.636,-0.666C39.372,-0.474 39.225,-0.333 39.195,-0.243C39.165,-0.153 39.246,-0.042 39.438,0.09C39.834,0.354 40.155,0.561 40.401,0.711C40.647,0.861 40.83,0.96 40.95,1.008C41.07,1.056 41.145,1.059 41.175,1.017C41.205,0.975 41.214,0.906 41.202,0.81Z" style="fill:black;fill-rule:nonzero;"/>
            <path d="M59.472,-4.914C59.424,-4.158 59.4,-3.345 59.4,-2.475C59.4,-1.605 59.43,-0.606 59.49,0.522C59.526,1.314 59.499,1.755 59.409,1.845C59.319,1.935 59.13,1.752 58.842,1.296C58.53,0.792 58.197,0.357 57.843,-0.009C57.489,-0.375 57.15,-0.732 56.826,-1.08C56.682,-1.236 56.589,-1.356 56.547,-1.44C56.505,-1.524 56.499,-1.572 56.529,-1.584C56.559,-1.596 56.616,-1.578 56.7,-1.53C56.784,-1.482 56.88,-1.416 56.988,-1.332C57.192,-1.164 57.375,-1.02 57.537,-0.9C57.699,-0.78 57.882,-0.654 58.086,-0.522C58.434,-0.306 58.641,-0.219 58.707,-0.261C58.773,-0.303 58.806,-0.516 58.806,-0.9C58.806,-2.136 58.824,-3.288 58.86,-4.356C58.476,-3.996 58.098,-3.672 57.726,-3.384C57.354,-3.096 56.97,-2.814 56.574,-2.538C56.346,-2.382 56.16,-2.271 56.016,-2.205C55.872,-2.139 55.752,-2.112 55.656,-2.124C55.56,-2.136 55.482,-2.181 55.422,-2.259C55.362,-2.337 55.302,-2.448 55.242,-2.592C55.098,-2.904 55.065,-3.111 55.143,-3.213C55.221,-3.315 55.344,-3.288 55.512,-3.132C55.596,-3.06 55.674,-3.018 55.746,-3.006C55.818,-2.994 55.917,-3.015 56.043,-3.069C56.169,-3.123 56.331,-3.213 56.529,-3.339C56.727,-3.465 56.994,-3.636 57.33,-3.852C57.642,-4.044 57.927,-4.227 58.185,-4.401C58.443,-4.575 58.68,-4.746 58.896,-4.914C58.932,-5.502 58.98,-6.069 59.04,-6.615C59.1,-7.161 59.178,-7.71 59.274,-8.262C58.95,-8.082 58.629,-7.89 58.311,-7.686C57.993,-7.482 57.708,-7.272 57.456,-7.056C57.168,-6.816 56.952,-6.66 56.808,-6.588C56.664,-6.516 56.532,-6.492 56.412,-6.516C56.268,-6.54 56.127,-6.588 55.989,-6.66C55.851,-6.732 55.722,-6.834 55.602,-6.966C55.41,-7.17 55.323,-7.311 55.341,-7.389C55.359,-7.467 55.464,-7.458 55.656,-7.362C55.848,-7.266 56.043,-7.227 56.241,-7.245C56.439,-7.263 56.724,-7.392 57.096,-7.632C57.54,-7.908 57.951,-8.16 58.329,-8.388C58.707,-8.616 59.07,-8.82 59.418,-9C59.43,-9.084 59.442,-9.168 59.454,-9.252C59.466,-9.336 59.484,-9.42 59.508,-9.504C59.592,-9.876 59.646,-10.197 59.67,-10.467C59.694,-10.737 59.685,-10.971 59.643,-11.169C59.601,-11.367 59.529,-11.544 59.427,-11.7C59.325,-11.856 59.196,-12.012 59.04,-12.168C58.932,-12.276 58.899,-12.357 58.941,-12.411C58.983,-12.465 59.16,-12.408 59.472,-12.24C59.748,-12.072 59.976,-11.88 60.156,-11.664C60.336,-11.448 60.414,-11.184 60.39,-10.872C60.378,-10.632 60.354,-10.398 60.318,-10.17C60.282,-9.942 60.234,-9.678 60.174,-9.378C60.306,-9.438 60.441,-9.498 60.579,-9.558C60.717,-9.618 60.852,-9.678 60.984,-9.738C61.14,-9.798 61.263,-9.825 61.353,-9.819C61.443,-9.813 61.536,-9.774 61.632,-9.702C61.74,-9.63 61.782,-9.543 61.758,-9.441C61.734,-9.339 61.584,-9.246 61.308,-9.162C61.14,-9.102 60.942,-9.027 60.714,-8.937C60.486,-8.847 60.246,-8.742 59.994,-8.622L59.94,-8.352C59.844,-7.896 59.76,-7.428 59.688,-6.948C59.616,-6.468 59.556,-5.952 59.508,-5.4C59.928,-5.748 60.312,-6.132 60.66,-6.552C60.828,-6.744 60.954,-6.819 61.038,-6.777C61.122,-6.735 61.062,-6.6 60.858,-6.372C60.606,-6.096 60.366,-5.838 60.138,-5.598C59.91,-5.358 59.688,-5.13 59.472,-4.914ZM66.096,-1.728C66.36,-1.596 66.63,-1.437 66.906,-1.251C67.182,-1.065 67.44,-0.873 67.68,-0.675C67.92,-0.477 68.136,-0.279 68.328,-0.081C68.52,0.117 68.664,0.288 68.76,0.432C68.832,0.54 68.877,0.648 68.895,0.756C68.913,0.864 68.91,0.951 68.886,1.017C68.862,1.083 68.814,1.116 68.742,1.116C68.67,1.116 68.58,1.068 68.472,0.972C68.316,0.84 68.13,0.672 67.914,0.468C67.698,0.264 67.476,0.051 67.248,-0.171C67.02,-0.393 66.792,-0.618 66.564,-0.846C66.336,-1.074 66.138,-1.272 65.97,-1.44C65.802,-1.608 65.724,-1.728 65.736,-1.8C65.748,-1.872 65.868,-1.848 66.096,-1.728ZM70.074,-3.996C70.218,-3.828 70.266,-3.708 70.218,-3.636C70.17,-3.564 69.996,-3.564 69.696,-3.636C69.468,-3.696 69.195,-3.732 68.877,-3.744C68.559,-3.756 68.211,-3.753 67.833,-3.735C67.455,-3.717 67.059,-3.678 66.645,-3.618C66.231,-3.558 65.814,-3.486 65.394,-3.402C65.298,-3.378 65.196,-3.354 65.088,-3.33C64.98,-3.306 64.878,-3.282 64.782,-3.258C64.398,-1.878 63.894,-0.894 63.27,-0.306C62.646,0.282 61.92,0.456 61.092,0.216C60.984,0.18 60.915,0.144 60.885,0.108C60.855,0.072 60.849,0.036 60.867,0C60.885,-0.036 60.921,-0.063 60.975,-0.081C61.029,-0.099 61.092,-0.108 61.164,-0.108C61.428,-0.084 61.692,-0.117 61.956,-0.207C62.22,-0.297 62.478,-0.456 62.73,-0.684C62.982,-0.912 63.222,-1.221 63.45,-1.611C63.678,-2.001 63.882,-2.49 64.062,-3.078C63.642,-2.946 63.231,-2.808 62.829,-2.664C62.427,-2.52 62.016,-2.352 61.596,-2.16C61.344,-2.04 61.137,-1.95 60.975,-1.89C60.813,-1.83 60.672,-1.791 60.552,-1.773C60.432,-1.755 60.324,-1.758 60.228,-1.782C60.132,-1.806 60.03,-1.842 59.922,-1.89C59.718,-1.986 59.622,-2.076 59.634,-2.16C59.646,-2.244 59.778,-2.304 60.03,-2.34C60.282,-2.388 60.582,-2.463 60.93,-2.565C61.278,-2.667 61.68,-2.802 62.136,-2.97C62.232,-3.006 62.322,-3.039 62.406,-3.069C62.49,-3.099 62.58,-3.132 62.676,-3.168C62.616,-3.216 62.544,-3.33 62.46,-3.51C62.388,-3.69 62.328,-3.873 62.28,-4.059C62.232,-4.245 62.22,-4.5 62.244,-4.824C62.256,-5.124 62.256,-5.367 62.244,-5.553C62.232,-5.739 62.205,-5.886 62.163,-5.994C62.121,-6.102 62.061,-6.183 61.983,-6.237C61.905,-6.291 61.806,-6.342 61.686,-6.39C61.506,-6.474 61.416,-6.561 61.416,-6.651C61.416,-6.741 61.548,-6.756 61.812,-6.696C61.908,-6.672 61.998,-6.648 62.082,-6.624C62.166,-6.6 62.244,-6.576 62.316,-6.552C62.46,-6.672 62.622,-6.774 62.802,-6.858C63.57,-7.218 64.233,-7.665 64.791,-8.199C65.349,-8.733 65.784,-9.324 66.096,-9.972C66.3,-10.404 66.351,-10.671 66.249,-10.773C66.147,-10.875 65.964,-10.872 65.7,-10.764C65.304,-10.608 64.905,-10.416 64.503,-10.188C64.101,-9.96 63.768,-9.738 63.504,-9.522C63.252,-9.318 63.057,-9.165 62.919,-9.063C62.781,-8.961 62.676,-8.901 62.604,-8.883C62.532,-8.865 62.487,-8.886 62.469,-8.946C62.451,-9.006 62.436,-9.096 62.424,-9.216C62.4,-9.444 62.403,-9.594 62.433,-9.666C62.463,-9.738 62.562,-9.828 62.73,-9.936C62.838,-10.008 63.021,-10.164 63.279,-10.404C63.537,-10.644 63.792,-10.938 64.044,-11.286C64.284,-11.622 64.407,-11.886 64.413,-12.078C64.419,-12.27 64.308,-12.432 64.08,-12.564C63.864,-12.684 63.789,-12.78 63.855,-12.852C63.921,-12.924 64.062,-12.912 64.278,-12.816C64.662,-12.66 64.914,-12.504 65.034,-12.348C65.154,-12.192 65.16,-11.994 65.052,-11.754C65.016,-11.682 64.977,-11.61 64.935,-11.538C64.893,-11.466 64.839,-11.385 64.773,-11.295C64.707,-11.205 64.623,-11.094 64.521,-10.962C64.419,-10.83 64.29,-10.668 64.134,-10.476C64.542,-10.776 64.911,-10.995 65.241,-11.133C65.571,-11.271 65.862,-11.34 66.114,-11.34C66.414,-11.34 66.636,-11.214 66.78,-10.962C66.924,-10.71 66.9,-10.356 66.708,-9.9C66.576,-9.576 66.384,-9.249 66.132,-8.919C65.88,-8.589 65.586,-8.274 65.25,-7.974C64.914,-7.674 64.548,-7.398 64.152,-7.146C63.756,-6.894 63.354,-6.69 62.946,-6.534C62.874,-6.51 62.808,-6.489 62.748,-6.471C62.688,-6.453 62.628,-6.432 62.568,-6.408C62.676,-6.336 62.748,-6.222 62.784,-6.066C62.904,-6.186 63.048,-6.282 63.216,-6.354C63.384,-6.426 63.588,-6.504 63.828,-6.588C64.476,-6.792 65.01,-6.981 65.43,-7.155C65.85,-7.329 66.198,-7.482 66.474,-7.614C66.678,-7.71 66.879,-7.743 67.077,-7.713C67.275,-7.683 67.524,-7.53 67.824,-7.254C68.064,-7.038 68.202,-6.843 68.238,-6.669C68.274,-6.495 68.244,-6.348 68.148,-6.228C68.052,-6.12 67.965,-6.018 67.887,-5.922C67.809,-5.826 67.71,-5.688 67.59,-5.508C67.422,-5.256 67.263,-5.034 67.113,-4.842C66.963,-4.65 66.834,-4.482 66.726,-4.338C66.69,-4.302 66.657,-4.266 66.627,-4.23C66.597,-4.194 66.57,-4.164 66.546,-4.14C67.026,-4.236 67.482,-4.302 67.914,-4.338C68.346,-4.374 68.748,-4.392 69.12,-4.392C69.528,-4.392 69.846,-4.26 70.074,-3.996ZM62.91,-3.24C63.138,-3.312 63.36,-3.381 63.576,-3.447C63.792,-3.513 64.008,-3.576 64.224,-3.636C64.308,-3.972 64.398,-4.35 64.494,-4.77C64.602,-5.322 64.671,-5.7 64.701,-5.904C64.731,-6.108 64.734,-6.252 64.71,-6.336C64.602,-6.3 64.494,-6.261 64.386,-6.219C64.278,-6.177 64.176,-6.144 64.08,-6.12C63.684,-6 63.399,-5.904 63.225,-5.832C63.051,-5.76 62.922,-5.688 62.838,-5.616L62.838,-5.598C62.826,-5.094 62.826,-4.689 62.838,-4.383C62.85,-4.077 62.874,-3.78 62.91,-3.492C62.934,-3.396 62.934,-3.312 62.91,-3.24ZM64.926,-3.816C65.286,-3.912 65.622,-3.984 65.934,-4.032C65.934,-4.152 66.036,-4.35 66.24,-4.626C66.432,-4.866 66.648,-5.154 66.888,-5.49C67.128,-5.826 67.296,-6.126 67.392,-6.39C67.44,-6.51 67.449,-6.636 67.419,-6.768C67.389,-6.9 67.32,-6.996 67.212,-7.056C67.02,-7.176 66.66,-7.134 66.132,-6.93C66,-6.87 65.853,-6.807 65.691,-6.741C65.529,-6.675 65.358,-6.6 65.178,-6.516C65.394,-6.36 65.466,-6.156 65.394,-5.904C65.346,-5.736 65.295,-5.52 65.241,-5.256C65.187,-4.992 65.112,-4.632 65.016,-4.176C64.992,-4.116 64.977,-4.056 64.971,-3.996C64.965,-3.936 64.95,-3.876 64.926,-3.816Z" style="fill:black;fill-rule:nonzero;"/>
            <path d="M86.958,-3.204C87.186,-3 87.288,-2.856 87.264,-2.772C87.24,-2.688 87.078,-2.646 86.778,-2.646C86.466,-2.646 86.073,-2.58 85.599,-2.448C85.125,-2.316 84.474,-2.106 83.646,-1.818C83.298,-1.698 83.082,-1.653 82.998,-1.683C82.914,-1.713 83.022,-1.788 83.322,-1.908C83.634,-2.04 83.967,-2.184 84.321,-2.34C84.675,-2.496 85.044,-2.688 85.428,-2.916C85.008,-2.892 84.549,-2.859 84.051,-2.817C83.553,-2.775 83.046,-2.73 82.53,-2.682C82.506,-2.598 82.482,-2.523 82.458,-2.457C82.434,-2.391 82.41,-2.328 82.386,-2.268C82.278,-2.004 82.188,-1.839 82.116,-1.773C82.044,-1.707 81.936,-1.662 81.792,-1.638C81.648,-1.614 81.582,-1.671 81.594,-1.809C81.606,-1.947 81.672,-2.196 81.792,-2.556L81.792,-2.574C80.748,-2.406 79.737,-2.175 78.759,-1.881C77.781,-1.587 76.728,-1.164 75.6,-0.612C75.228,-0.432 74.904,-0.3 74.628,-0.216C74.352,-0.132 74.109,-0.081 73.899,-0.063C73.689,-0.045 73.506,-0.048 73.35,-0.072C73.194,-0.096 73.062,-0.126 72.954,-0.162C72.726,-0.234 72.633,-0.315 72.675,-0.405C72.717,-0.495 72.858,-0.552 73.098,-0.576C73.218,-0.588 73.374,-0.615 73.566,-0.657C73.758,-0.699 73.956,-0.75 74.16,-0.81C74.364,-0.87 74.571,-0.936 74.781,-1.008C74.991,-1.08 75.18,-1.152 75.348,-1.224C75.78,-1.404 76.218,-1.575 76.662,-1.737C77.106,-1.899 77.562,-2.052 78.03,-2.196C77.958,-2.352 77.919,-2.583 77.913,-2.889C77.907,-3.195 77.934,-3.66 77.994,-4.284C78.09,-5.184 78.246,-6.126 78.462,-7.11C78.678,-8.094 78.948,-9.072 79.272,-10.044C78.888,-9.912 78.504,-9.78 78.12,-9.648C77.736,-9.516 77.364,-9.378 77.004,-9.234C76.644,-9.09 76.296,-9.006 75.96,-8.982C75.624,-8.958 75.336,-9.024 75.096,-9.18C74.724,-9.444 74.73,-9.576 75.114,-9.576C75.402,-9.576 75.717,-9.594 76.059,-9.63C76.401,-9.666 76.746,-9.744 77.094,-9.864C77.382,-9.96 77.73,-10.071 78.138,-10.197C78.546,-10.323 78.984,-10.458 79.452,-10.602C79.596,-11.01 79.746,-11.409 79.902,-11.799C80.058,-12.189 80.22,-12.552 80.388,-12.888C80.532,-13.188 80.724,-13.371 80.964,-13.437C81.204,-13.503 81.402,-13.488 81.558,-13.392C81.726,-13.284 81.789,-13.215 81.747,-13.185C81.705,-13.155 81.594,-13.14 81.414,-13.14C81.258,-13.14 81.12,-13.098 81,-13.014C80.88,-12.93 80.808,-12.792 80.784,-12.6C80.724,-12.24 80.667,-11.937 80.613,-11.691C80.559,-11.445 80.478,-11.184 80.37,-10.908C80.838,-11.064 81.3,-11.217 81.756,-11.367C82.212,-11.517 82.656,-11.67 83.088,-11.826C82.908,-11.994 82.749,-12.15 82.611,-12.294C82.473,-12.438 82.326,-12.612 82.17,-12.816C82.014,-13.008 81.975,-13.095 82.053,-13.077C82.131,-13.059 82.266,-12.99 82.458,-12.87C82.662,-12.762 82.884,-12.624 83.124,-12.456C83.364,-12.288 83.61,-12.138 83.862,-12.006C84.078,-11.91 84.165,-11.796 84.123,-11.664C84.081,-11.532 83.904,-11.43 83.592,-11.358C83.148,-11.25 82.665,-11.118 82.143,-10.962C81.621,-10.806 81.078,-10.632 80.514,-10.44C80.454,-10.416 80.388,-10.392 80.316,-10.368C80.244,-10.344 80.166,-10.32 80.082,-10.296C80.034,-10.224 79.998,-10.152 79.974,-10.08C79.77,-9.672 79.593,-9.183 79.443,-8.613C79.293,-8.043 79.122,-7.326 78.93,-6.462C79.266,-7.086 79.614,-7.59 79.974,-7.974C80.334,-8.358 80.712,-8.682 81.108,-8.946C81.276,-9.054 81.441,-9.135 81.603,-9.189C81.765,-9.243 81.927,-9.252 82.089,-9.216C82.251,-9.18 82.41,-9.093 82.566,-8.955C82.722,-8.817 82.866,-8.61 82.998,-8.334C83.094,-8.13 83.163,-7.905 83.205,-7.659C83.247,-7.413 83.256,-7.242 83.232,-7.146C83.208,-6.99 83.175,-6.747 83.133,-6.417C83.091,-6.087 83.052,-5.736 83.016,-5.364C82.992,-5.124 82.953,-4.8 82.899,-4.392C82.845,-3.984 82.764,-3.588 82.656,-3.204C82.872,-3.228 83.067,-3.246 83.241,-3.258C83.415,-3.27 83.586,-3.276 83.754,-3.276C84.474,-3.3 85.122,-3.372 85.698,-3.492C85.986,-3.552 86.232,-3.552 86.436,-3.492C86.64,-3.432 86.814,-3.336 86.958,-3.204ZM78.912,-5.184C78.768,-4.704 78.684,-4.23 78.66,-3.762C78.636,-3.294 78.636,-2.838 78.66,-2.394C78.792,-2.43 78.933,-2.466 79.083,-2.502C79.233,-2.538 79.374,-2.58 79.506,-2.628C79.542,-2.688 79.587,-2.766 79.641,-2.862C79.695,-2.958 79.764,-3.06 79.848,-3.168C79.944,-3.312 80.04,-3.486 80.136,-3.69C80.232,-3.894 80.313,-4.101 80.379,-4.311C80.445,-4.521 80.496,-4.728 80.532,-4.932C80.568,-5.136 80.58,-5.316 80.568,-5.472C80.556,-5.604 80.52,-5.706 80.46,-5.778C80.4,-5.85 80.307,-5.88 80.181,-5.868C80.055,-5.856 79.89,-5.796 79.686,-5.688C79.482,-5.58 79.224,-5.412 78.912,-5.184ZM80.118,-2.754C80.43,-2.838 80.745,-2.91 81.063,-2.97C81.381,-3.03 81.678,-3.084 81.954,-3.132C82.062,-3.552 82.155,-4.014 82.233,-4.518C82.311,-5.022 82.371,-5.514 82.413,-5.994C82.455,-6.474 82.47,-6.906 82.458,-7.29C82.446,-7.674 82.404,-7.968 82.332,-8.172C82.224,-8.436 82.089,-8.583 81.927,-8.613C81.765,-8.643 81.576,-8.592 81.36,-8.46C81.132,-8.316 80.838,-8.082 80.478,-7.758C80.118,-7.434 79.746,-6.924 79.362,-6.228C79.314,-6.144 79.272,-6.06 79.236,-5.976C79.38,-6.072 79.533,-6.165 79.695,-6.255C79.857,-6.345 80.028,-6.414 80.208,-6.462C80.304,-6.498 80.403,-6.531 80.505,-6.561C80.607,-6.591 80.709,-6.591 80.811,-6.561C80.913,-6.531 80.997,-6.468 81.063,-6.372C81.129,-6.276 81.174,-6.12 81.198,-5.904C81.222,-5.676 81.231,-5.475 81.225,-5.301C81.219,-5.127 81.192,-4.95 81.144,-4.77C81.096,-4.59 81.015,-4.383 80.901,-4.149C80.787,-3.915 80.64,-3.624 80.46,-3.276C80.4,-3.192 80.343,-3.105 80.289,-3.015C80.235,-2.925 80.178,-2.838 80.118,-2.754ZM80.28,-0.396C80.628,-0.504 80.811,-0.528 80.829,-0.468C80.847,-0.408 80.7,-0.306 80.388,-0.162C80.244,-0.09 80.058,0.006 79.83,0.126C79.602,0.246 79.35,0.387 79.074,0.549C78.798,0.711 78.519,0.888 78.237,1.08C77.955,1.272 77.694,1.47 77.454,1.674C77.166,1.902 76.905,2.037 76.671,2.079C76.437,2.121 76.236,2.094 76.068,1.998C75.996,1.95 75.942,1.872 75.906,1.764C75.87,1.656 75.858,1.533 75.87,1.395C75.882,1.257 75.912,1.119 75.96,0.981C76.008,0.843 76.086,0.72 76.194,0.612C76.278,0.516 76.359,0.435 76.437,0.369C76.515,0.303 76.572,0.27 76.608,0.27C76.644,0.27 76.656,0.312 76.644,0.396C76.632,0.48 76.584,0.624 76.5,0.828C76.404,1.068 76.389,1.233 76.455,1.323C76.521,1.413 76.728,1.344 77.076,1.116C77.352,0.96 77.637,0.804 77.931,0.648C78.225,0.492 78.519,0.348 78.813,0.216C79.107,0.084 79.38,-0.036 79.632,-0.144C79.884,-0.252 80.1,-0.336 80.28,-0.396ZM84.186,-1.062C84.918,-0.69 85.38,-0.291 85.572,0.135C85.764,0.561 85.758,1.014 85.554,1.494C85.494,1.638 85.443,1.746 85.401,1.818C85.359,1.89 85.314,1.932 85.266,1.944C85.218,1.956 85.161,1.944 85.095,1.908C85.029,1.872 84.942,1.818 84.834,1.746C84.702,1.626 84.54,1.53 84.348,1.458C84.156,1.386 83.988,1.338 83.844,1.314C83.712,1.29 83.571,1.251 83.421,1.197C83.271,1.143 83.112,1.074 82.944,0.99C82.752,0.882 82.656,0.792 82.656,0.72C82.656,0.648 82.842,0.66 83.214,0.756C83.634,0.876 83.985,0.945 84.267,0.963C84.549,0.981 84.738,0.924 84.834,0.792C84.966,0.636 84.96,0.399 84.816,0.081C84.672,-0.237 84.384,-0.546 83.952,-0.846C83.736,-1.002 83.655,-1.11 83.709,-1.17C83.763,-1.23 83.922,-1.194 84.186,-1.062Z" style="fill:black;fill-rule:nonzero;"/>
            <path d="M104.238,-10.836C104.274,-10.704 104.232,-10.608 104.112,-10.548C103.992,-10.488 103.776,-10.416 103.464,-10.332C103.188,-10.26 102.816,-10.089 102.348,-9.819C101.88,-9.549 101.358,-9.21 100.782,-8.802C100.398,-8.526 100.149,-8.409 100.035,-8.451C99.921,-8.493 100.02,-8.622 100.332,-8.838C100.632,-9.054 100.875,-9.237 101.061,-9.387C101.247,-9.537 101.388,-9.663 101.484,-9.765C101.58,-9.867 101.637,-9.951 101.655,-10.017C101.673,-10.083 101.67,-10.134 101.646,-10.17C101.562,-10.29 101.454,-10.383 101.322,-10.449C101.19,-10.515 101.022,-10.482 100.818,-10.35C100.434,-10.11 100.188,-9.972 100.08,-9.936C99.972,-9.9 99.888,-9.966 99.828,-10.134C99.78,-10.278 99.792,-10.395 99.864,-10.485C99.936,-10.575 100.086,-10.686 100.314,-10.818C100.866,-11.154 101.175,-11.475 101.241,-11.781C101.307,-12.087 101.22,-12.432 100.98,-12.816C100.872,-12.996 100.722,-13.122 100.53,-13.194C100.338,-13.266 100.152,-13.272 99.972,-13.212C99.876,-13.188 99.81,-13.179 99.774,-13.185C99.738,-13.191 99.804,-13.242 99.972,-13.338C100.104,-13.422 100.215,-13.47 100.305,-13.482C100.395,-13.494 100.512,-13.476 100.656,-13.428C101.232,-13.224 101.601,-12.939 101.763,-12.573C101.925,-12.207 101.904,-11.814 101.7,-11.394C101.556,-11.07 101.556,-10.854 101.7,-10.746C101.844,-10.638 102.168,-10.662 102.672,-10.818C103.224,-10.974 103.614,-11.055 103.842,-11.061C104.07,-11.067 104.202,-10.992 104.238,-10.836ZM93.762,-8.766C93.51,-8.538 93.324,-8.403 93.204,-8.361C93.084,-8.319 92.964,-8.4 92.844,-8.604C92.772,-8.736 92.751,-8.838 92.781,-8.91C92.811,-8.982 92.91,-9.06 93.078,-9.144C93.258,-9.252 93.45,-9.369 93.654,-9.495C93.858,-9.621 94.053,-9.753 94.239,-9.891C94.425,-10.029 94.602,-10.161 94.77,-10.287C94.938,-10.413 95.076,-10.53 95.184,-10.638C95.412,-10.854 95.52,-11.049 95.508,-11.223C95.496,-11.397 95.4,-11.64 95.22,-11.952C95.136,-12.096 95.136,-12.174 95.22,-12.186C95.304,-12.198 95.46,-12.108 95.688,-11.916C96,-11.652 96.18,-11.406 96.228,-11.178C96.276,-10.95 96.222,-10.758 96.066,-10.602C95.79,-10.314 95.52,-10.11 95.256,-9.99C95.4,-9.99 95.58,-9.948 95.796,-9.864C96.012,-9.78 96.168,-9.714 96.264,-9.666C96.372,-9.594 96.492,-9.555 96.624,-9.549C96.756,-9.543 96.906,-9.585 97.074,-9.675C97.242,-9.765 97.431,-9.909 97.641,-10.107C97.851,-10.305 98.094,-10.572 98.37,-10.908C98.574,-11.16 98.691,-11.265 98.721,-11.223C98.751,-11.181 98.7,-11.052 98.568,-10.836C98.34,-10.452 98.121,-10.113 97.911,-9.819C97.701,-9.525 97.512,-9.276 97.344,-9.072C97.176,-8.88 96.996,-8.79 96.804,-8.802C96.612,-8.814 96.42,-8.886 96.228,-9.018C96.024,-9.15 95.847,-9.246 95.697,-9.306C95.547,-9.366 95.352,-9.384 95.112,-9.36C94.884,-9.336 94.671,-9.291 94.473,-9.225C94.275,-9.159 94.038,-9.006 93.762,-8.766ZM103.122,-6.408C103.11,-6.228 103.107,-5.988 103.113,-5.688C103.119,-5.388 103.131,-5.064 103.149,-4.716C103.167,-4.368 103.191,-4.014 103.221,-3.654C103.251,-3.294 103.284,-2.964 103.32,-2.664C103.392,-1.932 103.443,-1.311 103.473,-0.801C103.503,-0.291 103.509,0.147 103.491,0.513C103.473,0.879 103.422,1.203 103.338,1.485C103.254,1.767 103.134,2.04 102.978,2.304C102.87,2.484 102.753,2.589 102.627,2.619C102.501,2.649 102.39,2.58 102.294,2.412C102.186,2.172 102.027,1.971 101.817,1.809C101.607,1.647 101.358,1.482 101.07,1.314C100.674,1.074 100.347,0.855 100.089,0.657C99.831,0.459 99.588,0.234 99.36,-0.018C99.24,-0.15 99.18,-0.24 99.18,-0.288C98.904,-0.084 98.778,-0.198 98.802,-0.63C98.814,-0.99 98.49,-1.092 97.83,-0.936C97.362,-0.804 97.023,-0.744 96.813,-0.756C96.603,-0.768 96.42,-0.906 96.264,-1.17C96.168,-1.314 96.105,-1.545 96.075,-1.863C96.045,-2.181 96.06,-2.478 96.12,-2.754C96.144,-2.898 96.15,-3.063 96.138,-3.249C96.126,-3.435 96.108,-3.63 96.084,-3.834C96.072,-3.93 96.06,-4.023 96.048,-4.113C96.036,-4.203 96.03,-4.296 96.03,-4.392C96.006,-4.668 96.012,-4.815 96.048,-4.833C96.084,-4.851 96.132,-4.782 96.192,-4.626C96.252,-4.458 96.303,-4.329 96.345,-4.239C96.387,-4.149 96.444,-4.056 96.516,-3.96C96.576,-3.888 96.612,-3.807 96.624,-3.717C96.636,-3.627 96.654,-3.516 96.678,-3.384C96.678,-3.336 96.681,-3.294 96.687,-3.258C96.693,-3.222 96.696,-3.18 96.696,-3.132C97.104,-3.276 97.5,-3.351 97.884,-3.357C98.268,-3.363 98.556,-3.306 98.748,-3.186C98.856,-3.114 98.904,-3.063 98.892,-3.033C98.88,-3.003 98.808,-2.976 98.676,-2.952C98.436,-2.904 98.169,-2.853 97.875,-2.799C97.581,-2.745 97.218,-2.682 96.786,-2.61L96.75,-2.61C96.75,-2.514 96.75,-2.412 96.75,-2.304C96.75,-2.196 96.738,-2.076 96.714,-1.944C96.69,-1.608 96.771,-1.404 96.957,-1.332C97.143,-1.26 97.356,-1.284 97.596,-1.404C97.932,-1.56 98.211,-1.635 98.433,-1.629C98.655,-1.623 98.844,-1.56 99,-1.44C99.084,-1.368 99.171,-1.344 99.261,-1.368C99.351,-1.392 99.408,-1.506 99.432,-1.71C99.468,-2.25 99.492,-2.772 99.504,-3.276C99.516,-3.78 99.516,-4.212 99.504,-4.572C99.492,-4.908 99.405,-5.133 99.243,-5.247C99.081,-5.361 98.796,-5.412 98.388,-5.4C98.112,-5.4 97.854,-5.322 97.614,-5.166C97.374,-5.01 97.158,-4.752 96.966,-4.392C96.858,-4.188 96.768,-4.122 96.696,-4.194C96.624,-4.266 96.642,-4.44 96.75,-4.716C96.942,-5.16 97.185,-5.475 97.479,-5.661C97.773,-5.847 98.19,-5.94 98.73,-5.94C98.97,-5.94 99.168,-5.916 99.324,-5.868C99.48,-5.82 99.648,-5.724 99.828,-5.58C100.14,-5.304 100.26,-4.98 100.188,-4.608C100.164,-4.476 100.143,-4.236 100.125,-3.888C100.107,-3.54 100.086,-3.006 100.062,-2.286C100.05,-1.938 100.002,-1.614 99.918,-1.314C99.834,-1.014 99.708,-0.78 99.54,-0.612C99.48,-0.552 99.423,-0.495 99.369,-0.441C99.315,-0.387 99.264,-0.348 99.216,-0.324C99.252,-0.312 99.303,-0.291 99.369,-0.261C99.435,-0.231 99.522,-0.18 99.63,-0.108C99.942,0.096 100.248,0.279 100.548,0.441C100.848,0.603 101.208,0.792 101.628,1.008C102.036,1.212 102.315,1.26 102.465,1.152C102.615,1.044 102.69,0.75 102.69,0.27C102.69,0.03 102.693,-0.255 102.699,-0.585C102.705,-0.915 102.696,-1.29 102.672,-1.71C102.66,-1.914 102.645,-2.232 102.627,-2.664C102.609,-3.096 102.591,-3.543 102.573,-4.005C102.555,-4.467 102.534,-4.905 102.51,-5.319C102.486,-5.733 102.462,-6.024 102.438,-6.192C102.39,-6.576 102.309,-6.888 102.195,-7.128C102.081,-7.368 101.937,-7.545 101.763,-7.659C101.589,-7.773 101.394,-7.842 101.178,-7.866C100.962,-7.89 100.722,-7.878 100.458,-7.83C100.314,-7.794 100.155,-7.764 99.981,-7.74C99.807,-7.716 99.633,-7.701 99.459,-7.695C99.285,-7.689 99.12,-7.686 98.964,-7.686C98.808,-7.686 98.682,-7.692 98.586,-7.704C98.442,-7.728 98.28,-7.71 98.1,-7.65C97.92,-7.59 97.782,-7.53 97.686,-7.47C97.518,-7.374 97.392,-7.266 97.308,-7.146C97.224,-7.026 97.17,-6.936 97.146,-6.876C97.086,-6.744 97.035,-6.642 96.993,-6.57C96.951,-6.498 96.9,-6.426 96.84,-6.354C96.66,-6.15 96.468,-6.036 96.264,-6.012C96.132,-5.988 96.012,-6.003 95.904,-6.057C95.796,-6.111 95.682,-6.234 95.562,-6.426C95.526,-6.474 95.472,-6.504 95.4,-6.516C95.328,-6.528 95.25,-6.507 95.166,-6.453C95.082,-6.399 94.998,-6.306 94.914,-6.174C94.83,-6.042 94.752,-5.856 94.68,-5.616C94.656,-5.544 94.641,-5.472 94.635,-5.4C94.629,-5.328 94.614,-5.244 94.59,-5.148C94.53,-4.908 94.467,-4.683 94.401,-4.473C94.335,-4.263 94.242,-4.002 94.122,-3.69C94.086,-3.618 94.065,-3.528 94.059,-3.42C94.053,-3.312 94.05,-3.204 94.05,-3.096C94.074,-2.664 94.077,-2.307 94.059,-2.025C94.041,-1.743 93.984,-1.428 93.888,-1.08C93.828,-0.78 93.798,-0.507 93.798,-0.261C93.798,-0.015 93.828,0.252 93.888,0.54C93.912,0.66 93.912,0.762 93.888,0.846C93.864,0.93 93.825,0.987 93.771,1.017C93.717,1.047 93.654,1.035 93.582,0.981C93.51,0.927 93.438,0.828 93.366,0.684C93.282,0.528 93.216,0.387 93.168,0.261C93.12,0.135 93.093,0.006 93.087,-0.126C93.081,-0.258 93.093,-0.402 93.123,-0.558C93.153,-0.714 93.204,-0.906 93.276,-1.134C93.348,-1.35 93.396,-1.587 93.42,-1.845C93.444,-2.103 93.45,-2.358 93.438,-2.61C93.426,-2.862 93.399,-3.105 93.357,-3.339C93.315,-3.573 93.264,-3.774 93.204,-3.942C93.012,-4.458 93.06,-5.04 93.348,-5.688C93.444,-5.892 93.513,-5.988 93.555,-5.976C93.597,-5.964 93.588,-5.874 93.528,-5.706C93.42,-5.43 93.378,-5.145 93.402,-4.851C93.426,-4.557 93.492,-4.32 93.6,-4.14C93.816,-3.78 94.014,-3.864 94.194,-4.392C94.23,-4.512 94.269,-4.626 94.311,-4.734C94.353,-4.842 94.392,-4.956 94.428,-5.076C94.476,-5.268 94.509,-5.421 94.527,-5.535C94.545,-5.649 94.578,-5.826 94.626,-6.066C94.734,-6.51 94.938,-6.792 95.238,-6.912C95.646,-7.044 95.946,-6.948 96.138,-6.624C96.234,-6.468 96.351,-6.42 96.489,-6.48C96.627,-6.54 96.804,-6.738 97.02,-7.074C97.092,-7.206 97.164,-7.305 97.236,-7.371C97.308,-7.437 97.392,-7.512 97.488,-7.596C97.68,-7.752 97.902,-7.893 98.154,-8.019C98.406,-8.145 98.61,-8.22 98.766,-8.244C99.15,-8.292 99.492,-8.328 99.792,-8.352C100.092,-8.376 100.434,-8.4 100.818,-8.424C101.262,-8.448 101.619,-8.418 101.889,-8.334C102.159,-8.25 102.432,-8.082 102.708,-7.83C102.888,-7.662 103.005,-7.485 103.059,-7.299C103.113,-7.113 103.134,-6.816 103.122,-6.408Z" style="fill:black;fill-rule:nonzero;"/>
            <path d="M122.202,-2.304C122.322,-2.124 122.34,-2.025 122.256,-2.007C122.172,-1.989 121.938,-2.058 121.554,-2.214C121.254,-2.322 120.897,-2.4 120.483,-2.448C120.069,-2.496 119.625,-2.514 119.151,-2.502C118.677,-2.49 118.182,-2.451 117.666,-2.385C117.15,-2.319 116.634,-2.226 116.118,-2.106C116.118,-1.722 116.115,-1.305 116.109,-0.855C116.103,-0.405 116.1,0.096 116.1,0.648C116.088,1.332 116.076,1.839 116.064,2.169C116.052,2.499 116.028,2.784 115.992,3.024C115.968,3.18 115.917,3.27 115.839,3.294C115.761,3.318 115.692,3.228 115.632,3.024C115.512,2.616 115.437,2.163 115.407,1.665C115.377,1.167 115.362,0.708 115.362,0.288C115.374,-0.132 115.383,-0.525 115.389,-0.891C115.395,-1.257 115.398,-1.608 115.398,-1.944C114.366,-1.68 113.421,-1.389 112.563,-1.071C111.705,-0.753 110.862,-0.366 110.034,0.09C109.722,0.258 109.5,0.303 109.368,0.225C109.236,0.147 109.104,-0.066 108.972,-0.414C108.936,-0.546 108.957,-0.687 109.035,-0.837C109.113,-0.987 109.302,-1.182 109.602,-1.422C109.842,-1.614 109.98,-1.689 110.016,-1.647C110.052,-1.605 110.004,-1.506 109.872,-1.35C109.608,-1.074 109.482,-0.864 109.494,-0.72C109.506,-0.576 109.608,-0.546 109.8,-0.63C110.328,-0.858 110.823,-1.065 111.285,-1.251C111.747,-1.437 112.203,-1.608 112.653,-1.764C113.103,-1.92 113.55,-2.061 113.994,-2.187C114.438,-2.313 114.906,-2.43 115.398,-2.538C115.41,-2.754 115.416,-2.967 115.416,-3.177C115.416,-3.387 115.416,-3.6 115.416,-3.816C115.2,-3.744 114.99,-3.678 114.786,-3.618C114.582,-3.558 114.378,-3.492 114.174,-3.42C113.754,-3.264 113.43,-3.219 113.202,-3.285C112.974,-3.351 112.746,-3.582 112.518,-3.978C112.446,-4.098 112.377,-4.26 112.311,-4.464C112.245,-4.668 112.185,-4.899 112.131,-5.157C112.077,-5.415 112.029,-5.685 111.987,-5.967C111.945,-6.249 111.912,-6.534 111.888,-6.822C111.864,-7.026 111.834,-7.206 111.798,-7.362C111.762,-7.518 111.696,-7.674 111.6,-7.83C111.576,-7.89 111.552,-7.968 111.528,-8.064C111.504,-8.16 111.498,-8.25 111.51,-8.334C111.51,-8.466 111.534,-8.532 111.582,-8.532C111.63,-8.532 111.654,-8.49 111.654,-8.406C111.654,-8.214 111.792,-8.01 112.068,-7.794C112.2,-7.674 112.299,-7.524 112.365,-7.344C112.431,-7.164 112.494,-6.894 112.554,-6.534C112.602,-6.246 112.641,-5.985 112.671,-5.751C112.701,-5.517 112.746,-5.256 112.806,-4.968C112.95,-4.14 113.328,-3.822 113.94,-4.014C114.228,-4.11 114.486,-4.194 114.714,-4.266C114.942,-4.338 115.176,-4.41 115.416,-4.482C115.428,-4.734 115.434,-4.995 115.434,-5.265C115.434,-5.535 115.434,-5.82 115.434,-6.12C115.29,-6.084 115.146,-6.048 115.002,-6.012C114.858,-5.976 114.708,-5.928 114.552,-5.868C114.312,-5.796 114.105,-5.766 113.931,-5.778C113.757,-5.79 113.586,-5.844 113.418,-5.94C113.25,-6.036 113.172,-6.123 113.184,-6.201C113.196,-6.279 113.298,-6.33 113.49,-6.354C113.91,-6.414 114.27,-6.471 114.57,-6.525C114.87,-6.579 115.158,-6.642 115.434,-6.714C115.434,-6.942 115.434,-7.176 115.434,-7.416C115.434,-7.656 115.44,-7.914 115.452,-8.19L115.452,-8.388C114.888,-8.292 114.378,-8.238 113.922,-8.226C113.79,-8.214 113.664,-8.184 113.544,-8.136C113.424,-8.088 113.28,-7.998 113.112,-7.866C113.04,-7.806 112.986,-7.782 112.95,-7.794C112.914,-7.806 112.899,-7.836 112.905,-7.884C112.911,-7.932 112.938,-7.989 112.986,-8.055C113.034,-8.121 113.1,-8.184 113.184,-8.244C113.268,-8.304 113.367,-8.361 113.481,-8.415C113.595,-8.469 113.748,-8.526 113.94,-8.586C114.132,-8.646 114.375,-8.712 114.669,-8.784C114.963,-8.856 115.338,-8.946 115.794,-9.054C115.782,-9.102 115.8,-9.171 115.848,-9.261C115.896,-9.351 115.992,-9.48 116.136,-9.648C116.484,-10.068 116.745,-10.422 116.919,-10.71C117.093,-10.998 117.252,-11.262 117.396,-11.502C117.552,-11.754 117.66,-11.964 117.72,-12.132C117.78,-12.3 117.792,-12.447 117.756,-12.573C117.72,-12.699 117.633,-12.819 117.495,-12.933C117.357,-13.047 117.162,-13.182 116.91,-13.338C116.73,-13.458 116.652,-13.539 116.676,-13.581C116.7,-13.623 116.814,-13.614 117.018,-13.554C117.402,-13.446 117.714,-13.308 117.954,-13.14C118.194,-12.972 118.338,-12.858 118.386,-12.798C118.554,-12.594 118.62,-12.369 118.584,-12.123C118.548,-11.877 118.416,-11.652 118.188,-11.448C118.044,-11.316 117.843,-11.094 117.585,-10.782C117.327,-10.47 116.958,-9.996 116.478,-9.36C116.442,-9.324 116.409,-9.288 116.379,-9.252C116.349,-9.216 116.322,-9.186 116.298,-9.162C116.43,-9.186 116.568,-9.216 116.712,-9.252C116.856,-9.288 117.006,-9.324 117.162,-9.36C117.498,-9.432 117.78,-9.489 118.008,-9.531C118.236,-9.573 118.428,-9.594 118.584,-9.594C118.74,-9.594 118.878,-9.57 118.998,-9.522C119.118,-9.474 119.244,-9.402 119.376,-9.306C119.568,-9.162 119.709,-9.033 119.799,-8.919C119.889,-8.805 119.946,-8.694 119.97,-8.586C119.994,-8.478 119.985,-8.367 119.943,-8.253C119.901,-8.139 119.838,-8.01 119.754,-7.866C119.67,-7.722 119.589,-7.548 119.511,-7.344C119.433,-7.14 119.34,-6.864 119.232,-6.516C118.992,-5.772 118.779,-5.232 118.593,-4.896C118.407,-4.56 118.206,-4.308 117.99,-4.14C117.786,-3.972 117.645,-3.894 117.567,-3.906C117.489,-3.918 117.402,-3.966 117.306,-4.05C117.15,-4.206 116.997,-4.281 116.847,-4.275C116.697,-4.269 116.478,-4.206 116.19,-4.086C116.178,-4.086 116.169,-4.083 116.163,-4.077C116.157,-4.071 116.148,-4.068 116.136,-4.068L116.136,-2.7C117.036,-2.868 117.9,-2.994 118.728,-3.078C119.556,-3.162 120.24,-3.192 120.78,-3.168C121.116,-3.144 121.392,-3.072 121.608,-2.952C121.824,-2.832 122.022,-2.616 122.202,-2.304ZM116.154,-4.698C116.226,-4.722 116.304,-4.743 116.388,-4.761C116.472,-4.779 116.562,-4.8 116.658,-4.824C117.042,-4.956 117.264,-4.932 117.324,-4.752C117.384,-4.608 117.468,-4.545 117.576,-4.563C117.684,-4.581 117.774,-4.662 117.846,-4.806C118.218,-5.526 118.485,-6.15 118.647,-6.678C118.809,-7.206 118.926,-7.674 118.998,-8.082C119.058,-8.43 119.013,-8.688 118.863,-8.856C118.713,-9.024 118.41,-9.042 117.954,-8.91C117.666,-8.826 117.372,-8.751 117.072,-8.685C116.772,-8.619 116.466,-8.556 116.154,-8.496C116.154,-8.472 116.157,-8.457 116.163,-8.451C116.169,-8.445 116.172,-8.436 116.172,-8.424C116.16,-8.148 116.154,-7.887 116.154,-7.641C116.154,-7.395 116.154,-7.158 116.154,-6.93C116.406,-7.002 116.61,-7.029 116.766,-7.011C116.922,-6.993 117.066,-6.924 117.198,-6.804C117.33,-6.684 117.375,-6.576 117.333,-6.48C117.291,-6.384 117.174,-6.33 116.982,-6.318C116.838,-6.306 116.697,-6.297 116.559,-6.291C116.421,-6.285 116.286,-6.27 116.154,-6.246L116.154,-4.698ZM112.68,-11.736C112.656,-11.88 112.623,-12.018 112.581,-12.15C112.539,-12.282 112.488,-12.414 112.428,-12.546C112.38,-12.642 112.383,-12.702 112.437,-12.726C112.491,-12.75 112.548,-12.714 112.608,-12.618C112.704,-12.45 112.803,-12.261 112.905,-12.051C113.007,-11.841 113.106,-11.658 113.202,-11.502C113.43,-11.118 113.598,-10.893 113.706,-10.827C113.814,-10.761 113.952,-10.842 114.12,-11.07C114.336,-11.37 114.531,-11.658 114.705,-11.934C114.879,-12.21 115.068,-12.51 115.272,-12.834C115.44,-13.11 115.551,-13.242 115.605,-13.23C115.659,-13.218 115.638,-13.122 115.542,-12.942C114.954,-11.862 114.636,-11.16 114.588,-10.836C114.54,-10.632 114.507,-10.455 114.489,-10.305C114.471,-10.155 114.486,-9.996 114.534,-9.828C114.606,-9.576 114.6,-9.414 114.516,-9.342C114.432,-9.27 114.342,-9.264 114.246,-9.324C114.114,-9.408 113.964,-9.546 113.796,-9.738C113.628,-9.93 113.466,-10.143 113.31,-10.377C113.154,-10.611 113.019,-10.848 112.905,-11.088C112.791,-11.328 112.716,-11.544 112.68,-11.736Z" style="fill:black;fill-rule:nonzero;"/>
        </g>
    </g>
</svg>
