<?xml version="1.0" encoding="UTF-8" standalone="no"?><!DOCTYPE svg PUBLIC "-//W3C//DTD SVG 1.1//EN" "http://www.w3.org/Graphics/SVG/1.1/DTD/svg11.dtd"><svg width="100%" height="100%" viewBox="0 0 91 23" version="1.1" xmlns="http://www.w3.org/2000/svg" xmlns:xlink="http://www.w3.org/1999/xlink" xml:space="preserve" style="fill-rule:evenodd;clip-rule:evenodd;stroke-linejoin:round;stroke-miterlimit:1.41421;"><g id="WeFile"><path d="M22.47,22l5.76,-21.42l-4.62,0l-3.51,14.76l-0.06,0l-3.66,-14.76l-4.41,0l-3.72,14.58l-0.06,0l-3.39,-14.58l-4.71,0l5.67,21.42l4.77,0l3.57,-14.58l0.06,0l3.63,14.58l4.68,0Z" style="fill:#000;fill-rule:nonzero;"/><path d="M37.57,12.58l-6.93,0c0.02,-0.3 0.085,-0.64 0.195,-1.02c0.11,-0.38 0.3,-0.74 0.57,-1.08c0.27,-0.34 0.63,-0.625 1.08,-0.855c0.45,-0.23 1.015,-0.345 1.695,-0.345c1.04,0 1.815,0.28 2.325,0.84c0.51,0.56 0.865,1.38 1.065,2.46ZM30.64,15.28l11.19,0c0.08,-1.2 -0.02,-2.35 -0.3,-3.45c-0.28,-1.1 -0.735,-2.08 -1.365,-2.94c-0.63,-0.86 -1.435,-1.545 -2.415,-2.055c-0.98,-0.51 -2.13,-0.765 -3.45,-0.765c-1.18,0 -2.255,0.21 -3.225,0.63c-0.97,0.42 -1.805,0.995 -2.505,1.725c-0.7,0.73 -1.24,1.595 -1.62,2.595c-0.38,1 -0.57,2.08 -0.57,3.24c0,1.2 0.185,2.3 0.555,3.3c0.37,1 0.895,1.86 1.575,2.58c0.68,0.72 1.51,1.275 2.49,1.665c0.98,0.39 2.08,0.585 3.3,0.585c1.76,0 3.26,-0.4 4.5,-1.2c1.24,-0.8 2.16,-2.13 2.76,-3.99l-3.75,0c-0.14,0.48 -0.52,0.935 -1.14,1.365c-0.62,0.43 -1.36,0.645 -2.22,0.645c-1.2,0 -2.12,-0.31 -2.76,-0.93c-0.64,-0.62 -0.99,-1.62 -1.05,-3Z" style="fill:#000;fill-rule:nonzero;"/><path d="M43.8,0.58l0,21.42l4.71,0l0,-8.85l8.97,0l0,-3.66l-8.97,0l0,-4.95l10.35,0l0,-3.96l-15.06,0Z" style="fill:#000;fill-rule:nonzero;"/><path d="M65.19,4.09l0,-3.51l-4.26,0l0,3.51l4.26,0ZM60.93,6.49l0,15.51l4.26,0l0,-15.51l-4.26,0Z" style="fill:#000;fill-rule:nonzero;"/><rect x="69" y="0.58" width="4.26" height="21.42" style="fill:#000;fill-rule:nonzero;"/><path d="M86.06,12.58l-6.93,0c0.02,-0.3 0.085,-0.64 0.195,-1.02c0.11,-0.38 0.3,-0.74 0.57,-1.08c0.27,-0.34 0.63,-0.625 1.08,-0.855c0.45,-0.23 1.015,-0.345 1.695,-0.345c1.04,0 1.815,0.28 2.325,0.84c0.51,0.56 0.865,1.38 1.065,2.46ZM79.13,15.28l11.19,0c0.08,-1.2 -0.02,-2.35 -0.3,-3.45c-0.28,-1.1 -0.735,-2.08 -1.365,-2.94c-0.63,-0.86 -1.435,-1.545 -2.415,-2.055c-0.98,-0.51 -2.13,-0.765 -3.45,-0.765c-1.18,0 -2.255,0.21 -3.225,0.63c-0.97,0.42 -1.805,0.995 -2.505,1.725c-0.7,0.73 -1.24,1.595 -1.62,2.595c-0.38,1 -0.57,2.08 -0.57,3.24c0,1.2 0.185,2.3 0.555,3.3c0.37,1 0.895,1.86 1.575,2.58c0.68,0.72 1.51,1.275 2.49,1.665c0.98,0.39 2.08,0.585 3.3,0.585c1.76,0 3.26,-0.4 4.5,-1.2c1.24,-0.8 2.16,-2.13 2.76,-3.99l-3.75,0c-0.14,0.48 -0.52,0.935 -1.14,1.365c-0.62,0.43 -1.36,0.645 -2.22,0.645c-1.2,0 -2.12,-0.31 -2.76,-0.93c-0.64,-0.62 -0.99,-1.62 -1.05,-3Z" style="fill:#000;fill-rule:nonzero;"/></g></svg>